<svg fill="#0174CF" id="Capa_1" enable-background="new 0 0 510 510" height="512" viewBox="0 0 510 510" width="512" xmlns="http://www.w3.org/2000/svg"><g><path d="m94 350v160h258c0-28.155 0-144.551 0-160-50.363 0-207.317 0-258 0zm73 97h-32v-30h32zm144 0h-32v-30h32zm-72 0h-32v-30h32z"/><path d="m264 198.35v121.65h118v190h64c0-27.463 0-404.818 0-417.02-62.796 36.354-78.36 45.362-182 105.37zm63 71.65v-30h56v30z"/><path d="m304 0v80h-98v-80h-206v510h64c0-8.391 0-180.261 0-190h142v-210h98v30.53c131.93-76.341-173.314 100.337 172-99.58v469.05h34v-510zm-161 286h-80v-30h80zm0-64h-80v-30h80zm0-64h-80v-30h80zm0-64h-80v-30h80z"/></g></svg>